{"title":"Spider Man 3 1080P BluRay Dual Audio By Ashish7(wall.e)","uid":7481873,"size":3958423924,"categoryP":"video","categoryS":"hd___movies","magnet":"?xt=urn:btih:96b73a9b631f7f3ce0845c73f3464256f73f9424&amp;dn=Spider+Man+3+1080P+BluRay+Dual+Audio+By+Ashish7%28wall.e%29&amp;tr=udp%3A%2F%2Ftracker.openbittorrent.com%3A80&amp;tr=udp%3A%2F%2Fopen.demonii.com%3A1337&amp;tr=udp%3A%2F%2Ftracker.coppersurfer.tk%3A6969&amp;tr=udp%3A%2F%2Fexodus.desync.com%3A6969","seeders":0,"leechers":3,"uploader":"wall.e","files":14,"time":1343459570,"description":"Format                           : Matroska\nFile size                        : 3.61 GiB\nDuration                         : 2h 13mn\nOverall bit rate                 : 3877 Kbps\n\nVideo\nID                               : 1\nFormat                           : AVC\nFormat/Info                      : Advanced Video Codec\nBit rate                         : 3196 Kbps\nMaximum bit rate                 : 62.5 Mbps\nWidth                            : 1920 pixels\nHeight                           : 800 pixels\nDisplay aspect ratio             : 2.40:1\nFrame rate                       : 25.000 fps\nColor space                      : YUV\nChroma subsampling               : 4:2:0\nStream size                      : 3.02 GiB (84%)\nTitle                            : 1080P BluRay ~ Ashish7(wall.e)\n\nAudio #1\nID                               : 2\nFormat                           : AC-3\nFormat/Info                      : Audio Coding 3\nBit rate                         : 448 Kbps\nChannel(s)                       : 6 channels\nChannel positions                : Front: L C R, Side: L R, LFE\nSampling rate                    : 48.0 KHz\nBit depth                        : 16 bits\nStream size                      : 428 MiB (12%)\nTitle                            : 5.1 Hindi Audio ~ Ashish7(wall.e)\n\nAudio #2\nID                               : 3\nFormat                           : MPEG Audio\nChannel(s)                       : 2 channels\nSampling rate                    : 48.0 KHz\nStream size                      : 107 MiB (3%)\nTitle                            : 5.1 English Audio ~ Ashish7(wall.e)","torrent":{"xt":"urn:btih:96b73a9b631f7f3ce0845c73f3464256f73f9424","amp;dn":"Spider+Man+3+1080P+BluRay+Dual+Audio+By+Ashish7%28wall.e%29","amp;tr":["udp%3A%2F%2Ftracker.openbittorrent.com%3A80","udp%3A%2F%2Fopen.demonii.com%3A1337","udp%3A%2F%2Ftracker.coppersurfer.tk%3A6969","udp%3A%2F%2Fexodus.desync.com%3A6969"],"infoHash":"96b73a9b631f7f3ce0845c73f3464256f73f9424","infoHashBuffer":{"type":"Buffer","data":[150,183,58,155,99,31,127,60,224,132,92,115,243,70,66,86,247,63,148,36]},"announce":[],"urlList":[]}}